<svg width="24" height="24" viewBox="0 0 24 24" fill="none" xmlns="http://www.w3.org/2000/svg">
<path d="M0 4C0 1.79086 1.79086 0 4 0H20C22.2091 0 24 1.79086 24 4V20C24 22.2091 22.2091 24 20 24H4C1.79086 24 0 22.2091 0 20V4Z" fill="black" fill-opacity="0.5"/>
<path fill-rule="evenodd" clip-rule="evenodd" d="M17.6714 6.27812C17.2808 5.8876 16.6477 5.8876 16.2571 6.27812L12 10.5353L7.74287 6.27812C7.35234 5.8876 6.71918 5.8876 6.32865 6.27812L6.27809 6.32868C5.88757 6.71921 5.88757 7.35237 6.27809 7.7429L10.5352 12L6.27809 16.2572C5.88757 16.6477 5.88757 17.2809 6.27809 17.6714L6.32865 17.722C6.71918 18.1125 7.35234 18.1125 7.74287 17.722L12 13.4648L16.2572 17.722C16.6477 18.1125 17.2808 18.1125 17.6714 17.722L17.7219 17.6714C18.1124 17.2809 18.1124 16.6477 17.7219 16.2572L13.4648 12L17.7219 7.7429C18.1124 7.35237 18.1124 6.71921 17.7219 6.32868L17.6714 6.27812Z" fill="white"/>
</svg>
