<svg width="12" height="12" viewBox="0 0 12 12" fill="none" xmlns="http://www.w3.org/2000/svg">
<path fill-rule="evenodd" clip-rule="evenodd" d="M7.5561 4.20732H10.8691C13.3671 4.20732 11.2681 11.6203 8.9961 11.9353C7.7181 12.1123 6.4981 11.9353 4.0001 11.2323V4.20732C4.5151 1.27032 5.1141 0.329318 5.6371 0.0833177L5.6321 0.0803177C5.6321 0.0803177 5.6571 0.0693177 5.6941 0.0563177C5.7391 0.0393177 5.7831 0.0283177 5.8261 0.0203177L5.8321 0.0193177C5.8611 0.0143177 5.8901 0.00931769 5.9201 0.00731769C6.1261 -0.0166823 6.4141 0.00731768 6.7051 0.231318C6.7051 0.231318 6.7101 0.236318 6.7121 0.237318L6.7131 0.238318C6.7231 0.246318 6.7471 0.270318 6.7901 0.328318C6.8601 0.412318 6.9251 0.513318 6.9821 0.639318C6.98272 0.640554 6.98334 0.641408 6.98419 0.642588C6.98472 0.643318 6.98534 0.644172 6.9861 0.645318C6.99018 0.653484 6.99188 0.659269 6.99359 0.665053C6.9948 0.669186 6.99602 0.673318 6.9981 0.678318C7.4821 1.78932 7.5561 4.20732 7.5561 4.20732ZM0 11.2069V4.90792L3 4.20792V11.2069H0Z" fill="#B4B4B4"/>
</svg>
