<svg width="18" height="16" viewBox="0 0 18 16" fill="none" xmlns="http://www.w3.org/2000/svg">
<path fill-rule="evenodd" clip-rule="evenodd" d="M12.9729 8.124L15.0063 10.1V2.309H2.6705V9.151L5.8344 6.106C5.98181 5.964 6.27554 5.964 6.42295 6.106L10.4149 9.948L12.2912 8.124C12.4613 7.958 12.8028 7.958 12.9729 8.124ZM0.968785 0H16.708C17.1514 0 17.5101 0.331 17.5101 0.739V12.533V14V15.261C17.5101 15.669 17.1514 16 16.708 16H0.968785C0.526555 16 0.167786 15.669 0.167786 15.261V14V11.56V0.739C0.167786 0.331 0.526555 0 0.968785 0ZM13.1741 4.9999C13.1741 5.8289 12.4457 6.4999 11.5483 6.4999C10.6508 6.4999 9.92242 5.8289 9.92242 4.9999C9.92242 4.1709 10.6508 3.4999 11.5483 3.4999C12.4457 3.4999 13.1741 4.1709 13.1741 4.9999Z" fill="#2C7FFF"/>
</svg>
