<svg width="16" height="16" viewBox="0 0 16 16" fill="none" xmlns="http://www.w3.org/2000/svg">
<path fill-rule="evenodd" clip-rule="evenodd" d="M4.99999 7.69561C4.99999 9.35261 6.34299 10.6956 7.99999 10.6956C9.65699 10.6956 11 9.35261 11 7.69561C11 6.03861 9.65699 4.69561 7.99999 4.69561C6.34299 4.69561 4.99999 6.03861 4.99999 7.69561ZM7.99999 3.00061C10.973 3.00061 13.566 4.88161 14.96 7.67761C15.013 7.78261 15.013 7.91261 14.96 8.01761C13.566 10.8146 10.973 12.6956 7.99999 12.6956C5.02699 12.6956 2.43399 10.8146 1.03999 8.01761C0.986994 7.91261 0.986994 7.78261 1.03999 7.67761C2.43399 4.88161 5.02699 3.00061 7.99999 3.00061ZM7.99999 6.57061C7.99999 7.19161 8.50399 7.69561 9.12499 7.69561C9.57799 7.69561 9.96299 7.42461 10.141 7.03861C10.206 7.24761 10.25 7.46561 10.25 7.69561C10.25 8.93861 9.24299 9.94561 7.99999 9.94561C6.75699 9.94561 5.74999 8.93861 5.74999 7.69561C5.74999 6.45261 6.75699 5.44561 7.99999 5.44561C8.22999 5.44561 8.44799 5.49061 8.65699 5.55461C8.27099 5.73261 7.99999 6.11761 7.99999 6.57061Z" fill="#B4B4B4"/>
</svg>
